<svg xmlns="http://www.w3.org/2000/svg" xmlns:xlink="http://www.w3.org/1999/xlink" width="250" height="125" viewBox="0 0 250 125">
    <defs>
        <path id="a" d="M.28.92h6.624v6.623H.28z"/>
        <path id="c" d="M.984.92h6.622v6.623H.984z"/>
        <path id="e" d="M.686.92h6.623v6.623H.686z"/>
        <path id="g" d="M4.274 1.019L2.252 9.943l.007.001c-.65 3.604 1.618 7.109 5.189 7.918 3.672.831 7.33-1.502 8.171-5.213.84-3.711-1.455-7.394-5.127-8.225a6.718 6.718 0 0 0-2.742-.05l-.853 3.763a3.61 3.61 0 0 1 2.884-.576c1.958.444 3.181 2.407 2.733 4.385-.448 1.977-2.398 3.221-4.355 2.777-1.871-.423-3.07-2.234-2.782-4.12L7.605.768l-3.331.251zM.146 19.24l3.331-.255.446-1.967c-1.901-1.409-2.425-3.748-2.425-3.748L.146 19.24z"/>
    </defs>
    <g fill="none" fill-rule="evenodd">
        <path fill="#FFF" d="M-558-276H808v800H-558z"/>
        <path fill="#E1EAFF" d="M18 118.25h20.74l-.532-101.392z"/>
        <path stroke="#3370FF" stroke-linecap="round" stroke-linejoin="round" d="M52.87 118.25h-8.753c-2.97 0-5.377-2.475-5.377-5.526v-89.68c0-3.05 2.407-5.524 5.377-5.524h116.987c2.97 0 5.377 2.473 5.377 5.524v89.68c0 3.051-2.407 5.525-5.377 5.525H96.007"/>
        <path fill="#BACEFD" d="M50.157 107.192h16.645a2.555 2.555 0 0 0 2.555-2.555V37.225a2.555 2.555 0 0 0-2.555-2.555H50.157a2.555 2.555 0 0 0-2.555 2.555v67.412a2.555 2.555 0 0 0 2.555 2.555M80.614 107.192h73.892a2.396 2.396 0 0 0 2.395-2.396v-67.73a2.395 2.395 0 0 0-2.395-2.396H80.614a2.396 2.396 0 0 0-2.396 2.396v67.73a2.396 2.396 0 0 0 2.396 2.396"/>
        <path stroke="#FFF" stroke-dasharray="4.253" stroke-linecap="round" stroke-linejoin="round" d="M91.006 96.91h53.107c.951 0 1.722-.771 1.722-1.722v-48.68c0-.95-.771-1.721-1.722-1.721H91.006c-.951 0-1.722.77-1.722 1.722v48.679c0 .95.771 1.722 1.722 1.722z"/>
        <g transform="translate(58 5.08)">
            <mask id="b" fill="#fff">
                <use xlink:href="#a"/>
            </mask>
            <path fill="#F54A45" d="M.28 4.231a3.312 3.312 0 1 0 6.624 0 3.312 3.312 0 0 0-6.623 0" mask="url(#b)"/>
        </g>
        <g transform="translate(47 5.08)">
            <mask id="d" fill="#fff">
                <use xlink:href="#c"/>
            </mask>
            <path fill="#FFC400" d="M.984 4.231a3.311 3.311 0 1 0 6.622.001 3.311 3.311 0 0 0-6.622-.001" mask="url(#d)"/>
        </g>
        <g transform="translate(37 5.08)">
            <mask id="f" fill="#fff">
                <use xlink:href="#e"/>
            </mask>
            <path fill="#34C724" d="M.686 4.231a3.312 3.312 0 1 0 6.623 0 3.312 3.312 0 0 0-6.623 0" mask="url(#f)"/>
        </g>
        <path stroke="#FFF" stroke-linecap="round" stroke-linejoin="round" d="M155.122 47.69H143.46M155.122 52.548H143.46M155.122 57.406h-5.942"/>
        <path fill="#82A7FC" d="M38.208 25.866h128.814v-6.338a2.67 2.67 0 0 0-2.67-2.67H40.878a2.67 2.67 0 0 0-2.67 2.67v6.338z"/>
        <path fill="#805000" d="M198.61 35.36s-1.696 7.483-4.94 11.46c-3.246 3.975 2.47 9.587 2.47 9.587s-.688 5.145-8.756 4.795c-8.069-.35-9.238-6.315-9.238-6.315s8.629-3.859 6.01-5.846c-2.62-1.988-4.198-4.327-2.853-12.629 1.345-8.303 7.309-9.004 12.367-7.835 5.056 1.17 4.94 6.782 4.94 6.782"/>
        <path stroke="#5C3A00" stroke-linecap="round" stroke-linejoin="round" d="M198.61 35.36s-1.696 7.483-4.94 11.46c-3.246 3.975 2.47 9.587 2.47 9.587s-.688 5.145-8.756 4.795c-8.069-.35-9.238-6.315-9.238-6.315s8.629-3.859 6.01-5.846c-2.62-1.988-4.198-4.327-2.853-12.629 1.345-8.303 7.309-9.004 12.367-7.835 5.056 1.17 4.94 6.782 4.94 6.782z"/>
        <path fill="#795101" d="M214.655 65.754c3.106 6.101 13.26 21.17 10.572 25.263-2.69 4.092-21.738 18.125-21.738 18.125l1.786-17.77 4.677-3.743-2.76-8.02 1.942-19.226s3.68 1.756 5.52 5.371"/>
        <path stroke="#623800" stroke-linecap="round" stroke-linejoin="round" d="M214.655 65.754c3.106 6.101 13.26 21.17 10.572 25.263-2.69 4.092-21.738 18.125-21.738 18.125l1.786-17.77 4.677-3.743-2.76-8.02 1.942-19.226s3.68 1.756 5.52 5.371z"/>
        <path fill="#805000" d="M198.61 35.36s3.82 1.52 2.416 4.793c-1.404 3.275-4.645 1.953-4.645 1.953l2.228-6.747z"/>
        <path stroke="#5C3A00" stroke-linecap="round" stroke-linejoin="round" d="M198.61 35.36s3.82 1.52 2.416 4.793c-1.404 3.275-4.645 1.953-4.645 1.953l2.228-6.747z"/>
        <path fill="#1E232A" d="M203.49 30.97c-.02.35-2.816 13.893-13.846 11.142-11.03-2.752-10.35-25.56 3.993-22.294 4.527 1.03 10.301 2.749 9.852 11.152"/>
        <path stroke="#1E232A" stroke-linecap="round" stroke-linejoin="round" d="M203.49 30.97c-.02.35-2.816 13.893-13.846 11.142-11.03-2.752-10.35-25.56 3.993-22.294 4.527 1.03 10.301 2.749 9.852 11.152z"/>
        <path fill="#805000" d="M185.98 35.477s8.42 3.508 6.081 5.613c-2.339 2.104-7.25-3.042-15.202 0l-21.516 9.822 16.896 2.215-6.394 17.721s-40.203-12.218-32.719-20.871c7.483-8.654 55.847-31.741 57.298-29.503 1.391 2.145-7.096 8.817-7.777 7.635-1.11-1.929 11.168-7.487 11.986-5.262.976 2.652-9.19 10.005-10.17 8.312-1.055-1.822 10.17-5.974 11.34-3.634 1.17 2.338-9.823 7.951-9.823 7.951"/>
        <path stroke="#5C3A00" stroke-linecap="round" stroke-linejoin="round" d="M185.98 35.477s8.42 3.508 6.081 5.613c-2.339 2.104-7.25-3.042-15.202 0l-21.516 9.822 16.896 2.215-6.394 17.721s-40.203-12.218-32.719-20.871c7.483-8.654 55.847-31.741 57.298-29.503 1.391 2.145-7.096 8.817-7.777 7.635-1.11-1.929 11.168-7.487 11.986-5.262.976 2.652-9.19 10.005-10.17 8.312-1.055-1.822 10.17-5.974 11.34-3.634 1.17 2.338-9.823 7.951-9.823 7.951z"/>
        <path stroke="#3370FF" stroke-linecap="round" stroke-linejoin="round" d="M222.938 26.077l8.994-.355M219.42 19.364l6.106-6.443M221.29 22.602l4.84-1.115"/>
        <path fill="#1E232A" d="M213.85 20.321a8.734 8.734 0 0 1-8.735 8.734 8.735 8.735 0 1 1 8.734-8.734"/>
        <path stroke="#1E232A" stroke-linecap="round" stroke-linejoin="round" d="M213.85 20.321a8.734 8.734 0 0 1-8.735 8.734 8.735 8.735 0 1 1 8.734-8.734z"/>
        <path fill="#795101" d="M153.646 104.548l-4.21 14.032h54.054l.973-14.032z"/>
        <path stroke="#623800" stroke-linecap="round" stroke-linejoin="round" d="M153.646 104.548l-4.21 14.032h54.054l.973-14.032z"/>
        <path fill="#FFC400" d="M172.239 53.126s3.26.387 7.575.94c2.63.337 2.699 3.817 7.626 4.643 6.353 1.065 6.525-2.68 8.699-2.302 8.054 1.404 12.995 3.976 12.995 3.976l-1.942 19.226-2.73 24.938h-50.816l18.593-51.42z"/>
        <path stroke="#FFF" stroke-linecap="round" stroke-linejoin="round" d="M172.239 53.126s3.26.387 7.575.94c2.63.337 2.699 3.817 7.626 4.643 6.353 1.065 6.525-2.68 8.699-2.302 8.054 1.404 12.995 3.976 12.995 3.976l-1.942 19.226-2.73 24.938h-50.816l18.593-51.42z"/>
        <g stroke-linecap="round" stroke-linejoin="round">
            <path stroke="#3370FF" d="M132.197 118.58h82.385"/>
            <path stroke="#FFF" d="M53.133 44.678h10.296M53.133 48.902h10.296M53.133 53.126h10.296"/>
        </g>
    </g>
</svg>
