<svg class="icon" width="1em" height="1em" viewBox="0 0 1250 1024" version="1.1" xmlns="http://www.w3.org/2000/svg">
    <path d="M1019.132126 1024H231.339826A236.307692 236.307692 0 0 1 0.031767 783.892586V239.132485A235.332764 235.332764 0 0 1 231.364824 0H1018.207194a235.332764 235.332764 0 0 1 231.358054 239.132485v545.710031a234.707809 234.707809 0 0 1-229.983155 239.157484h-0.524962z m-793.366892-949.930425a154.313698 154.313698 0 0 0-150.513976 157.488465v560.708933a154.338696 154.338696 0 0 0 150.513976 157.488465h798.791495a154.313698 154.313698 0 0 0 150.513976-157.488465V231.55804a154.338696 154.338696 0 0 0-150.513976-157.488465H225.765234z" fill="#1971EF" /><path d="M613.111864 549.484755a172.862339 172.862339 0 0 1-109.741963-39.172131l-239.107487-193.085858a38.797158 38.797158 0 0 1-7.699436-51.771209l0.54996-0.774943a33.847521 33.847521 0 0 1 49.071406-7.64944l239.107487 192.085932a107.742109 107.742109 0 0 0 134.740131 0l239.107488-192.085932a33.04758 33.04758 0 0 1 49.071406 7.64944 38.822157 38.822157 0 0 1-7.124479 52.496155l-238.232551 193.085858a178.461929 178.461929 0 0 1-109.741962 39.222128z" fill="#F3501F" />
</svg>
