<?xml version="1.0" standalone="no"?>
<!DOCTYPE svg PUBLIC "-//W3C//DTD SVG 1.1//EN" "http://www.w3.org/Graphics/SVG/1.1/DTD/svg11.dtd">
<svg t="1560408286542" class="icon" viewBox="0 0 1024 1024" version="1.1" xmlns="http://www.w3.org/2000/svg" p-id="11149" xmlns:xlink="http://www.w3.org/1999/xlink" width="1em" height="1em">
    <defs><style type="text/css"></style></defs>
    <path d="M238.933333 85.333333h399.786667a34.133333 34.133333 0 0 1 23.790933 9.642667l180.48 175.3088A34.133333 34.133333 0 0 1 853.333333 294.775467V870.4a68.266667 68.266667 0 0 1-68.266666 68.266667H238.933333a68.266667 68.266667 0 0 1-68.266666-68.266667V153.6a68.266667 68.266667 0 0 1 68.266666-68.266667z" fill="#d9d9d9" p-id="11150"></path>
    <path d="M850.602667 281.361067h-129.774934a68.266667 68.266667 0 0 1-68.266666-68.266667V88.2688a34.133333 34.133333 0 0 1 9.949866 6.7072l180.48 175.3088a34.133333 34.133333 0 0 1 7.594667 11.093333z" fill="#FFFFFF" p-id="11151"></path>
    <path d="M536.8832 779.639467H297.898667a13.653333 13.653333 0 0 1-10.461867-22.4256l136.055467-162.304a34.133333 34.133333 0 0 1 52.309333 0l71.509333 85.2992 163.328-176.401067a20.48 20.48 0 0 1 35.498667 13.909333v244.855467a17.066667 17.066667 0 0 1-17.066667 17.066667H536.900267z m-198.775467-384h24.814934a34.133333 34.133333 0 0 1 34.133333 34.133333v24.814933a34.133333 34.133333 0 0 1-34.133333 34.133334h-24.814934a34.133333 34.133333 0 0 1-34.133333-34.133334v-24.814933a34.133333 34.133333 0 0 1 34.133333-34.133333z" fill="#FFFFFF" p-id="11152"></path>
</svg>
