<svg xmlns="http://www.w3.org/2000/svg" viewBox="0 0 62 62" width="1em" height="1em" preserveAspectRatio="xMidYMid meet" style="width: 100%; height: 100%; transform: translate3d(0px, 0px, 0px);">
    <defs>
        <clipPath id="__lottie_element_12"><rect width="62" height="62" x="0" y="0"></rect></clipPath>
    </defs>
    <g clip-path="url(#__lottie_element_12)">
        <g transform="matrix(1,0,0,1,31,31)" opacity="1" style="display: block;">
            <g opacity="1" transform="matrix(1,0,0,1,0,0)">
                <path fill="rgb(0,214,186)" fill-opacity="1" d=" M18,-8.814292907714844 C20.483556747436523,-8.814292907714844 22.500011444091797,-6.125704288482666 22.500011444091797,-2.814317226409912 C22.500011444091797,0.4970696270465851 20.483556747436523,3.1856589317321777 18,3.1856589317321777 C15.516443252563477,3.1856589317321777 13.499988555908203,0.4970696270465851 13.499988555908203,-2.814317226409912 C13.499988555908203,-6.125704288482666 15.516443252563477,-8.814292907714844 18,-8.814292907714844z"></path>
            </g>
            <g opacity="1" transform="matrix(1,0,0,1,0,0)">
                <path fill="rgb(255,198,10)" fill-opacity="1" d=" M0,-3.5120060443878174 C2.759488105773926,-3.5120060443878174 4.999978542327881,-1.4955273866653442 4.999978542327881,0.9880579113960266 C4.999978542327881,3.4716432094573975 2.759488105773926,5.48812198638916 0,5.48812198638916 C-2.759488105773926,5.48812198638916 -4.999978542327881,3.4716432094573975 -4.999978542327881,0.9880579113960266 C-4.999978542327881,-1.4955273866653442 -2.759488105773926,-3.5120060443878174 0,-3.5120060443878174z"></path>
            </g>
            <g opacity="1" transform="matrix(1,0,0,1,0,0)">
                <path fill="rgb(51,112,255)" fill-opacity="1" d=" M-18,-5 C-15.240500450134277,-5 -13,-2.759500026702881 -13,0 C-13,2.759500026702881 -15.240500450134277,5 -18,5 C-20.75950050354004,5 -23,2.759500026702881 -23,0 C-23,-2.759500026702881 -20.75950050354004,-5 -18,-5z"></path>
            </g>
        </g>
    </g>
</svg>
