<?xml version="1.0" encoding="UTF-8"?>
<svg width="1em" height="1em" viewBox="0 0 36 36" version="1.1" xmlns="http://www.w3.org/2000/svg" xmlns:xlink="http://www.w3.org/1999/xlink">
    <!-- Generator: Sketch 63.1 (92452) - https://sketch.com -->
    <g id="logo" stroke="none" stroke-width="1" fill="none" fill-rule="evenodd">
        <g fill-rule="nonzero" id="logo_1">
            <g transform="translate(0.900000, 4.500000)">
                <polygon id="路径" fill="#409EFF" points="13.436308 1.13686838e-13 23.2916132 19.1477603 19.477324 19.1477603 11.9284512 4.48129118 4.37929587 19.1477603 0.565289256 19.1477603 10.4205945 1.13686838e-13"></polygon>
                <polygon id="路径" fill="#409EFF" points="20.3238165 0.000683195678 23.3402329 0.000683195678 33.1844414 19.1478782 29.3707174 19.1478782 21.8317537 4.4852482 18.7899158 10.401605 16.8820645 6.69472066"></polygon>
                <path d="M13.4718166,19.9959417 C16.7915079,19.9959417 18.8824907,21.5454708 18.9290599,24.4315081 L18.9298543,24.5304132 C18.9298543,25.3787726 19.3091286,25.6731492 20.8912381,25.6731492 C23.0363763,25.6731492 26.4462274,24.7994935 31.0335515,23.032888 L32.8304333,22.335876 L34.0575299,25.4978538 L32.476541,26.1114021 C27.4202206,28.073653 23.5889175,29.0648848 20.8912381,29.0648848 C17.6344465,29.0648848 15.5850713,27.5029713 15.5389152,24.6300004 L15.5381188,24.5304132 C15.5381188,23.695134 15.1306281,23.3876772 13.4718166,23.3876772 C11.25096,23.3876772 7.73438378,24.2635175 3.00641358,26.0335007 L1.19719263,26.71572 L-7.10542736e-15,23.5422991 L1.58671041,22.9437028 C6.77889224,20.9849201 10.7111475,19.9959417 13.4718166,19.9959417 Z" id="路径" fill="#38BEDE"></path>
            </g>
        </g>
    </g>
</svg>
