<svg class="icon" width="1em" height="1em" viewBox="0 0 1024 1024" version="1.1" xmlns="http://www.w3.org/2000/svg"><path d="M497.778 0L1024 526.222V1024L0 0h497.778z" fill="#E94D3D" /><path d="M512 108.089l21.333 21.333-42.666 180.622L603.022 197.69l22.756 22.755-156.445 159.29L448 358.4l42.667-180.622L378.31 290.133l-22.755-25.6L512 108.09z m152.178 150.755l98.133 98.134-22.755 21.333-73.956-73.955-45.511 45.51 62.578 62.578-21.334 21.334-64-64L550.4 416.71l73.956 73.956-22.756 22.755-98.133-98.133 160.71-156.445z m109.51 109.512l24.179 24.177-88.178 136.534 142.222-82.49 17.067 17.067-82.49 140.8 136.534-88.177 24.178 24.177-196.267 119.467L731.023 640l83.91-142.222-142.222 83.91-18.489-17.066L773.69 368.356z" fill="currentColor" /></svg>
