<svg class="icon" width="1em" height="1em" viewBox="0 0 1024 1024" version="1.1" xmlns="http://www.w3.org/2000/svg"><path d="M512 21.333333C238.933333 21.333333 21.333333 238.933333 21.333333 512S238.933333 1002.666667 512 1002.666667 1002.666667 785.066667 1002.666667 512c0-55.466667-8.533333-115.2-29.866667-166.4L896 422.4c8.533333 29.866667 8.533333 59.733333 8.533333 89.6 0 217.6-174.933333 392.533333-392.533333 392.533333S119.466667 729.6 119.466667 512 294.4 119.466667 512 119.466667c29.866667 0 59.733333 4.266667 89.6 8.533333L682.666667 46.933333c-55.466667-17.066667-115.2-25.6-170.666667-25.6m341.333333 0l-196.266666 196.266667v72.533333l-123.733334 123.733334c-8.533333-4.266667-12.8-4.266667-21.333333-4.266667-55.466667 0-98.133333 42.666667-98.133333 98.133333s42.666667 98.133333 98.133333 98.133334 98.133333-42.666667 98.133333-98.133334c0-8.533333 0-12.8-4.266666-21.333333l123.733333-123.733333h72.533333l196.266667-196.266667H853.333333V21.333333m-341.333333 196.266667c-162.133333 0-294.4 132.266667-294.4 294.4s132.266667 294.4 294.4 294.4 294.4-132.266667 294.4-294.4h-98.133333c0 106.666667-89.6 196.266667-196.266667 196.266667S315.733333 618.666667 315.733333 512 405.333333 315.733333 512 315.733333V217.6z" fill="CurrentColor" /></svg>
