<svg xmlns="http://www.w3.org/2000/svg" width="100" height="100" viewBox="0 0 100 100">
    <g fill="none" fill-rule="evenodd">
        <path stroke="#126DFF" stroke-linecap="round" stroke-linejoin="round" d="M63.912 62.114l-39.94 12.143a2.67 2.67 0 0 1-3.309-1.706L5.64 27.685a2.668 2.668 0 0 1 1.748-3.399l32.351-9.925 3.846 12.618 5.738-1.604 6.483 21.027"/>
        <path fill="#B5CEFF" d="M12.043 29.886l29.98-9.197 1.804 5.788 5.62-1.748 6.358 21.674 4.93-1.385 2.104 10.976-38.167 11.604z"/>
        <path stroke="#FFF" d="M12.043 29.886l29.98-9.197 1.804 5.788 5.62-1.748 6.358 21.674 4.93-1.385 2.104 10.976-38.167 11.604z"/>
        <path stroke="#126DFF" stroke-linecap="round" stroke-linejoin="round" d="M66.292 61.097l24.013 1.832a2.67 2.67 0 0 0 2.87-2.548l1.898-44.627a2.67 2.67 0 0 0-2.567-2.78L52.973 11.5c.016.129 0 10.585 0 10.585h6.31l-.573 19.168"/>
        <path fill="#B5CEFF" d="M52.527 17.2c.011.091 0 5.564 0 5.564l5.918.153-.375 19.133 7.498-.149-.342 11.214c0 .002 22.796 1.678 22.796 1.678.002 0 2.153-35.812 2.151-35.812L52.527 17.2z"/>
        <path stroke="#FFF" d="M52.527 17.2c.011.091 0 5.564 0 5.564l5.918.153-.375 19.133 7.498-.149-.342 11.214c0 .002 22.796 1.678 22.796 1.678.002 0 2.153-35.812 2.151-35.812L52.527 17.2z"/>
        <path stroke="#126DFF" stroke-linecap="round" stroke-linejoin="round" d="M25.181 46.9S61.55 86.234 48.334 86.234c-5.51 0 7.514-15.011 7.514-15.011M28.742 89.234H71.35"/>
        <path fill="#78A7FF" d="M12.755 30.355L61.55 55.54 25.057 67.026zM88.888 31.713L66.54 52.795l20.955 1.48z"/>
        <path fill="#FF333A" d="M77.233 60.53c0 5.905-4.787 10.692-10.692 10.692-5.906 0-10.693-4.787-10.693-10.692s4.787-10.692 10.693-10.692c5.905 0 10.692 4.787 10.692 10.692"/>
        <path stroke="#FFF" stroke-linecap="round" stroke-linejoin="round" d="M61.55 55.54l9.982 9.981M71.531 55.54L61.55 65.52"/>
        <path fill="#78A7FF" d="M79.683 27.185a4.076 4.076 0 1 1-8.152 0 4.076 4.076 0 0 1 8.152 0"/>
    </g>
</svg>
